<svg width="18" height="12" viewBox="0 0 18 12" fill="none" xmlns="http://www.w3.org/2000/svg">
<path d="M12.9737 3.5125C13.5428 3.87236 14.0651 4.30147 14.5286 4.79C15.2854 5.58989 15.881 6.52806 16.2829 7.55325C16.5831 8.31712 16.7764 9.12037 16.8561 9.93937C16.9033 10.4206 16.5069 10.8126 16.0239 10.8126H1.58644C1.10344 10.8126 0.707068 10.4197 0.754318 9.93937C0.833943 9.12037 1.02732 8.31712 1.32744 7.55325C1.72949 6.52837 2.32512 5.59051 3.08182 4.79087C3.54521 4.30204 4.06749 3.87263 4.63669 3.5125M12.9737 3.5125C12.6318 3.29567 12.2738 3.10552 11.9027 2.94375C10.9258 2.517 9.87126 2.29657 8.80519 2.29625C7.73913 2.29657 6.68462 2.517 5.70769 2.94375C5.33661 3.10552 4.97854 3.29567 4.63669 3.5125M12.9737 3.5125L14.4839 0.750122M4.63669 3.5125L3.12644 0.750122" stroke="#10EAFA" stroke-width="1.5" stroke-linecap="round" stroke-linejoin="round"/>
<path d="M5.96143 8.24274C6.56549 8.24274 7.05518 7.75305 7.05518 7.14899C7.05518 6.54493 6.56549 6.05524 5.96143 6.05524C5.35736 6.05524 4.86768 6.54493 4.86768 7.14899C4.86768 7.75305 5.35736 8.24274 5.96143 8.24274Z" fill="#10EAFA"/>
<path d="M11.6489 8.24274C12.253 8.24274 12.7427 7.75305 12.7427 7.14899C12.7427 6.54493 12.253 6.05524 11.6489 6.05524C11.0449 6.05524 10.5552 6.54493 10.5552 7.14899C10.5552 7.75305 11.0449 8.24274 11.6489 8.24274Z" fill="#10EAFA"/>
</svg>
