<svg width="20" height="20" viewBox="0 0 20 20" fill="none" xmlns="http://www.w3.org/2000/svg">
<path d="M10.8335 1.66666H11.0608C13.7784 1.66666 15.1373 1.66666 16.0809 2.33152C16.3513 2.52201 16.5913 2.74793 16.7937 3.0024C17.5002 3.89055 17.5002 5.16945 17.5002 7.72726V9.84848C17.5002 12.3178 17.5002 13.5524 17.1094 14.5385C16.4812 16.1238 15.1525 17.3743 13.4682 17.9655C12.4205 18.3333 11.1087 18.3333 8.48501 18.3333C6.98579 18.3333 6.23618 18.3333 5.63748 18.1232C4.67499 17.7853 3.91579 17.0707 3.5568 16.1649C3.3335 15.6014 3.3335 14.8959 3.3335 13.4848V9.99999" stroke="#141B34" stroke-width="1.5" stroke-linecap="round" stroke-linejoin="round"/>
<path d="M17.4998 10C17.4998 11.5341 16.2562 12.7778 14.7221 12.7778C14.1672 12.7778 13.5131 12.6806 12.9737 12.8251C12.4944 12.9535 12.12 13.3279 11.9916 13.8072C11.8471 14.3466 11.9443 15.0007 11.9443 15.5556C11.9443 17.0897 10.7006 18.3333 9.1665 18.3333" stroke="#141B34" stroke-width="1.5" stroke-linecap="round" stroke-linejoin="round"/>
<path d="M9.16667 4.99999L2.5 4.99999M5.83333 1.66666V8.33332" stroke="#141B34" stroke-width="1.5" stroke-linecap="round"/>
</svg>
