<svg width="21" height="21" viewBox="0 0 21 21" fill="none" xmlns="http://www.w3.org/2000/svg">
<g clip-path="url(#clip0_78_1757)">
<path d="M10.5 5.25C12.7925 5.25 14.77 6.8775 15.2162 9.12625L15.4788 10.4388L16.8175 10.535C17.4753 10.5792 18.0919 10.871 18.5432 11.3515C18.9945 11.8321 19.2471 12.4658 19.25 13.125C19.25 14.5688 18.0688 15.75 16.625 15.75H5.25C3.31625 15.75 1.75 14.1838 1.75 12.25C1.75 10.4563 3.08875 8.96 4.865 8.77625L5.80125 8.68L6.23875 7.84875C6.64122 7.06549 7.25198 6.40846 8.00381 5.94995C8.75564 5.49144 9.61939 5.24924 10.5 5.25ZM10.5 3.5C7.97125 3.5 5.775 4.935 4.68125 7.035C3.3952 7.17398 2.20588 7.78331 1.3418 8.74591C0.477725 9.70851 -0.000150239 10.9565 3.54312e-08 12.25C3.54312e-08 15.1462 2.35375 17.5 5.25 17.5H16.625C19.04 17.5 21 15.54 21 13.125C21 10.815 19.2063 8.9425 16.9312 8.785C16.6373 7.2955 15.8354 5.95425 14.6624 4.99034C13.4895 4.02643 12.0182 3.49966 10.5 3.5Z" fill="#10EAFA"/>
</g>
<defs>
<clipPath id="clip0_78_1757">
<rect width="21" height="21" fill="white"/>
</clipPath>
</defs>
</svg>
