<svg width="13" height="18" viewBox="0 0 13 18" fill="none" xmlns="http://www.w3.org/2000/svg">
<path fill-rule="evenodd" clip-rule="evenodd" d="M1.48485 7.44442C0.67005 7.44442 0.5 7.60433 0.5 8.37033V9.75925C0.5 10.5253 0.67005 10.6852 1.48485 10.6852H3.45454V16.2408C3.45454 17.0068 3.62459 17.1667 4.43939 17.1667H6.40908C7.22392 17.1667 7.39392 17.0068 7.39392 16.2408V10.6852H9.60558C10.2236 10.6852 10.3828 10.5722 10.5526 10.0137L10.9747 8.62475C11.2654 7.66783 11.0863 7.44442 10.0277 7.44442H7.39392V5.12963C7.39392 4.61826 7.83483 4.2037 8.37875 4.2037H11.1818C11.9966 4.2037 12.1667 4.04383 12.1667 3.27778V1.42592C12.1667 0.659875 11.9966 0.5 11.1818 0.5H8.37875C5.65917 0.5 3.45454 2.57276 3.45454 5.12963V7.44442H1.48485Z" stroke="#C1C2C2" stroke-linejoin="round"/>
</svg>
