<svg width="125" height="48" viewBox="0 0 125 48" fill="none" xmlns="http://www.w3.org/2000/svg">
<path d="M17.5485 1.10147V13.0171C17.5485 16.7483 15.6709 18 14.5154 18C12.1563 18 11.2898 17.0612 9.21957 12.7042L6.81237 7.64905C6.09021 6.10844 4.06816 1.43848 4.18852 6.0603V18H1.2036V6.0603C1.2036 2.32914 3.05714 1.10147 4.2126 1.10147C6.59572 1.10147 7.43824 2.01621 9.50843 6.37323L12.0119 11.6209C12.8785 13.5467 14.6839 17.326 14.5635 13.0171V1.10147H17.5485ZM28.0991 0.932967C32.8413 0.932967 36.7169 4.78448 36.7169 9.55074C36.7169 14.2929 32.8413 18.1685 28.0991 18.1685C23.3329 18.1685 19.4814 14.2929 19.4814 9.55074C19.4814 4.78448 23.3329 0.932967 28.0991 0.932967ZM28.0991 15.1836C31.1804 15.1836 33.732 12.6079 33.732 9.52666C33.732 6.44545 31.1804 3.91789 28.0991 3.91789C25.0179 3.91789 22.4663 6.44545 22.4663 9.52666C22.4663 12.6079 25.0179 15.1836 28.0991 15.1836ZM48.8977 10.6821L52.7974 18H49.4273L47.7663 14.8225C46.8516 13.2578 45.9609 11.0432 44.974 11.0432H43.0001C41.9168 11.0432 41.0262 11.9339 41.0262 13.0171V18H38.0412V13.0171C38.0412 10.2729 40.2559 8.05827 43.0001 8.05827H47.0201C49.6439 8.05827 49.6439 4.0864 47.0201 4.0864H38.0412V1.10147H47.0201C52.4604 1.10147 53.9047 8.636 48.8977 10.6821ZM59.01 18V4.0864H53.5216V1.10147H67.5074V4.0864H61.9949V18H59.01ZM81.0759 18V10.971H72.41V18H69.4251V1.12554H72.41V7.98606H81.0759V1.12554H84.0608V18H81.0759Z" fill="white"/>
<path d="M19.0409 29.4939V41.4336H16.056V29.4939C16.056 28.2422 15.8634 27.4237 15.045 27.4237C13.6729 27.4237 12.4452 29.5421 11.8916 30.4327L4.76625 41.4336H1.2036L8.3289 30.4327C10.7842 26.6293 12.373 24.4388 15.6468 24.4388C17.6688 24.4388 19.0409 26.3164 19.0409 29.4939ZM26.4508 41.4336V27.52H20.9624V24.5351H34.9482V27.52H29.4357V41.4336H26.4508ZM41.8488 38.4487H48.1075V41.4336H41.8488C39.1046 41.4336 36.8659 39.1949 36.8659 36.4507V24.5592H39.8508V36.4507C39.8508 37.558 40.7414 38.4487 41.8488 38.4487ZM67.8798 29.4939V41.4336H64.8948V29.4939C64.8948 28.2422 64.7023 27.4237 63.8838 27.4237C62.5117 27.4237 61.284 29.5421 60.7304 30.4327L53.6051 41.4336H50.0424L57.1677 30.4327C59.6231 26.6293 61.2118 24.4388 64.4856 24.4388C66.5077 24.4388 67.8798 26.3164 67.8798 29.4939ZM86.1461 24.5351V36.4507C86.1461 40.1819 84.2685 41.4336 83.113 41.4336C80.754 41.4336 79.8874 40.4948 77.8172 36.1378L75.41 31.0827C74.6878 29.5421 72.6658 24.8721 72.7861 29.4939V41.4336H69.8012V29.4939C69.8012 25.7628 71.6547 24.5351 72.8102 24.5351C75.1933 24.5351 76.0358 25.4498 78.106 29.8068L80.6095 35.0545C81.4761 36.9803 83.2815 40.7596 83.1611 36.4507V24.5351H86.1461ZM93.5674 41.4336V27.52H88.079V24.5351H102.065V27.52H96.5523V41.4336H93.5674ZM103.982 41.4336V24.5592H106.967V41.4336H103.982ZM123.424 41.4336H117.285C112.64 41.3855 108.884 37.6302 108.884 32.9843C108.884 28.3144 112.664 24.5351 117.31 24.5351H123.424V27.52H117.31C114.301 27.52 111.869 29.9513 111.869 32.9843C111.869 35.9933 114.301 38.4487 117.31 38.4487H123.424V41.4336Z" fill="white"/>
</svg>
