<svg width="22" height="9" viewBox="0 0 22 9" fill="none" xmlns="http://www.w3.org/2000/svg">
<path fill-rule="evenodd" clip-rule="evenodd" d="M4.72136 4.54145C4.72136 4.44917 4.67312 4.36441 4.59414 4.31852L2.48769 3.09626C2.45214 3.0752 2.4123 3.06416 2.37192 3.06266H2.35014C2.30975 3.06416 2.26992 3.0752 2.23376 3.09626L0.127413 4.31852C0.0489363 4.36466 0 4.44942 0 4.54171L0.00462508 7.83383C0.00462508 7.87947 0.0279991 7.9221 0.0677847 7.94467C0.106576 7.96874 0.155313 7.96874 0.194104 7.94467L1.44636 7.22145C1.52543 7.174 1.57367 7.09014 1.57367 6.99876V5.46078C1.57367 5.369 1.62191 5.28424 1.70074 5.2386L2.23386 4.92895C2.27345 4.90588 2.31691 4.89444 2.36118 4.89444C2.40474 4.89444 2.4492 4.90578 2.48769 4.9289L3.02057 5.23845C3.09945 5.28409 3.14789 5.36885 3.14789 5.46063V6.99851C3.14789 7.08979 3.19677 7.17405 3.27545 7.22119L4.52691 7.94392C4.56619 7.96749 4.61508 7.96749 4.65422 7.94392C4.69281 7.92135 4.71728 7.87872 4.71728 7.83308L4.72136 4.54145ZM14.6612 6.25553C14.6612 6.27845 14.6491 6.29966 14.6294 6.311L13.9059 6.73159C13.8862 6.74297 13.8619 6.74297 13.8424 6.73159L13.1188 6.311C13.0989 6.29961 13.0869 6.2784 13.0869 6.25553V5.41314C13.0869 5.39016 13.0989 5.369 13.1183 5.35746L13.8414 4.93617C13.8613 4.92463 13.8856 4.92463 13.9055 4.93617L14.6291 5.35746C14.649 5.369 14.6609 5.39016 14.6609 5.41314L14.6612 6.25553ZM14.8566 0.0162391C14.8172 -0.00592905 14.7691 -0.0053272 14.7301 0.0175933C14.6913 0.0406642 14.6674 0.0827938 14.6674 0.128434V3.38846C14.6674 3.42056 14.6505 3.45015 14.6229 3.4662C14.5955 3.48225 14.5615 3.48225 14.5339 3.4662L14.0062 3.15971C13.9276 3.11386 13.8309 3.11386 13.752 3.15971L11.6448 4.38613C11.5661 4.43177 11.5175 4.51653 11.5175 4.60781V7.06135C11.5175 7.15314 11.5661 7.2374 11.6448 7.28354L13.752 8.51081C13.8307 8.55645 13.9275 8.55645 14.0065 8.51081L16.1136 7.28303C16.1922 7.23689 16.2409 7.15263 16.2409 7.06085V0.946048C16.2409 0.852962 16.1907 0.767349 16.1101 0.721859L14.8566 0.0162391ZM21.8735 5.39097C21.9518 5.34513 21.9999 5.26047 21.9999 5.16919V4.57456C21.9999 4.48308 21.9517 4.39867 21.8733 4.35262L19.7796 3.12685C19.7005 3.08071 19.6035 3.08071 19.5244 3.12685L17.4178 4.35313C17.3387 4.39927 17.2905 4.48353 17.2905 4.57531V7.02785C17.2905 7.12013 17.3397 7.2054 17.4188 7.25104L19.512 8.45424C19.5891 8.49887 19.6836 8.49938 19.7617 8.45574L21.0278 7.74606C21.0676 7.72349 21.093 7.68086 21.093 7.63472C21.093 7.58857 21.0686 7.54544 21.0288 7.52287L18.9093 6.2961C18.8695 6.27353 18.8451 6.2309 18.8451 6.18526V5.41589C18.8451 5.36995 18.869 5.32762 18.9088 5.30475L19.5682 4.92107C19.6075 4.898 19.6557 4.898 19.695 4.92107L20.355 5.30475C20.3942 5.32732 20.4186 5.36995 20.4186 5.41559V6.02045C20.4186 6.06609 20.443 6.10872 20.4823 6.13179C20.5216 6.15436 20.5703 6.15436 20.6096 6.13129L21.8735 5.39097Z" fill="#10EAFA"/>
</svg>
