<svg width="21" height="21" viewBox="0 0 21 21" fill="none" xmlns="http://www.w3.org/2000/svg">
<g clip-path="url(#clip0_78_1748)">
<path d="M10.4643 0C5.5062 0 5.45294 1.92455 5.45294 2.32069C5.45294 2.92167 5.45294 4.725 5.45294 4.725H10.5598V5.44683C10.5598 5.44683 5.24255 5.44683 3.42453 5.44683C1.90699 5.44683 0 6.36949 0 10.4582C0 14.2139 1.48756 15.6664 2.98887 15.6664C3.43465 15.6664 4.77273 15.6664 4.77273 15.6664C4.77273 15.6664 4.77273 13.8022 4.77273 13.1607C4.77273 12.1124 5.29219 10.1718 7.71387 10.1718C10.7512 10.1718 11.5265 10.1718 12.7789 10.1718C13.5238 10.1718 15.6246 9.84805 15.6246 7.42159C15.6246 4.85348 15.6246 4.00623 15.6246 2.79796C15.6248 2.19603 15.5219 0 10.4643 0ZM7.64839 1.61681C8.15659 1.61681 8.56724 2.02726 8.56724 2.53565C8.56724 3.04366 8.15659 3.4545 7.64839 3.4545C7.14019 3.4545 6.72955 3.04385 6.72955 2.53565C6.72955 2.02726 7.14019 1.61681 7.64839 1.61681Z" fill="#10EAFA"/>
<path d="M10.5355 21C15.4913 21 15.5529 19.0392 15.5529 18.6793C15.5529 18.0783 15.5529 16.275 15.5529 16.275H10.44V15.5532C10.44 15.5532 15.7916 15.5532 17.5752 15.5532C19.1042 15.5532 20.9998 14.6074 20.9998 10.5418C20.9998 6.08943 18.988 5.33362 18.0109 5.33362C17.5649 5.33362 16.227 5.33362 16.227 5.33362C16.227 5.33362 16.227 7.28395 16.227 7.8393C16.227 8.88758 15.7248 10.8282 13.2859 10.8282C10.2485 10.8282 9.56775 10.8282 8.22069 10.8282C7.47767 10.8282 5.375 11.1901 5.375 13.5784C5.375 16.3418 5.375 17.0654 5.375 18.202C5.375 19.2005 5.98515 21 10.5355 21ZM13.3516 19.3832C12.8434 19.3832 12.4327 18.9725 12.4327 18.4643C12.4327 17.9561 12.8432 17.5455 13.3516 17.5455C13.8596 17.5455 14.2704 17.9561 14.2704 18.4643C14.2704 18.9725 13.8596 19.3832 13.3516 19.3832Z" fill="#10EAFA"/>
</g>
<defs>
<clipPath id="clip0_78_1748">
<rect width="21" height="21" fill="white"/>
</clipPath>
</defs>
</svg>
