<svg width="21" height="20" viewBox="0 0 21 20" fill="none" xmlns="http://www.w3.org/2000/svg">
<g clip-path="url(#clip0_78_1641)">
<path d="M10.5368 7.85156C9.42594 7.85156 8.52539 8.80471 8.52539 9.98047C8.52539 11.1562 9.42594 12.1094 10.5368 12.1094C11.6477 12.1094 12.5482 11.1562 12.5482 9.98047C12.5482 8.80471 11.6477 7.85156 10.5368 7.85156Z" fill="#10EAFA"/>
<path d="M20.9985 9.99978C20.9985 8.32842 19.5362 6.86256 17.2079 5.89786C17.239 5.68061 17.2671 5.46571 17.2871 5.25473C17.5168 2.85318 16.9701 1.11987 15.7485 0.373209C14.3818 -0.462077 12.4512 0.144191 10.4993 1.79751C8.54727 0.144191 6.61676 -0.462077 5.25 0.373209C4.02843 1.11987 3.48173 2.85318 3.71137 5.25473C3.73137 5.46571 3.75878 5.68139 3.79064 5.89943C3.59655 5.97786 3.40617 6.061 3.22319 6.14805C1.14453 7.13706 0 8.50646 0 9.99978C0 11.6711 1.46233 13.137 3.79064 14.1017C3.75878 14.319 3.73137 14.5339 3.71137 14.7448C3.48173 17.1464 4.02843 18.8797 5.25 19.6264C5.66999 19.8784 6.14589 20.0073 6.62862 19.9997C7.78573 19.9997 9.13694 19.355 10.4993 18.2021C11.8608 19.355 13.2128 19.9997 14.3714 19.9997C14.8541 20.0072 15.33 19.8783 15.75 19.6264C16.9716 18.8797 17.5183 17.1464 17.2886 14.7448C17.2686 14.5339 17.2405 14.319 17.2094 14.1017C19.5377 13.1386 21 11.6704 21 9.99978M14.3625 1.05869C14.6729 1.05077 14.9797 1.13035 15.2514 1.28928C16.0997 1.8077 16.4804 3.21396 16.2952 5.14728C16.2826 5.27904 16.2678 5.41237 16.25 5.54649C15.2819 5.23781 14.2905 5.01766 13.2869 4.88846C12.6784 4.03219 12.0018 3.23267 11.2645 2.49868C12.4224 1.55124 13.5091 1.05869 14.3618 1.05869M13.9639 12.1174C13.5893 12.8059 13.1813 13.4734 12.7416 14.1174C11.9964 14.1984 11.2477 14.2388 10.4985 14.2382C9.74959 14.2387 9.00114 14.1984 8.25614 14.1174C7.81764 13.4734 7.4109 12.8059 7.03753 12.1174C6.66289 11.4308 6.3224 10.724 6.01746 9.99978C6.3224 9.27557 6.66289 8.56873 7.03753 7.88215C7.41031 7.19646 7.8158 6.53129 8.25243 5.88923C8.9988 5.80618 9.74878 5.76481 10.4993 5.76531C11.2482 5.76483 11.9966 5.80515 12.7416 5.8861C13.1798 6.52914 13.5867 7.19536 13.961 7.88215C14.3353 8.5689 14.6758 9.27572 14.9811 9.99978C14.6758 10.7238 14.3353 11.4307 13.961 12.1174M15.4907 11.3331C15.7258 12.0119 15.9188 12.7061 16.0685 13.4115C15.4189 13.6259 14.7567 13.7949 14.0862 13.9174C14.341 13.5106 14.5879 13.0873 14.827 12.6476C15.0633 12.2131 15.2848 11.7747 15.4937 11.3362M9.09249 15.2491C9.55327 15.2789 10.0237 15.2962 10.5 15.2962C10.9763 15.2962 11.4497 15.2789 11.9112 15.2491C11.4736 15.804 11.0022 16.328 10.5 16.8178C9.99887 16.3281 9.52868 15.8041 9.09249 15.2491ZM6.91308 13.9158C6.24232 13.7939 5.57986 13.6254 4.92998 13.4115C5.07907 12.7073 5.27134 12.014 5.50557 11.3362C5.71151 11.7747 5.93227 12.2131 6.17229 12.6476C6.4123 13.0821 6.66047 13.5103 6.91308 13.9174M5.50557 8.66254C5.27218 7.98726 5.0804 7.29667 4.93146 6.59511C5.57973 6.38095 6.24042 6.21145 6.90938 6.08766C6.65602 6.49315 6.40786 6.91354 6.16858 7.35196C5.92931 7.79039 5.71077 8.22333 5.50187 8.66254M11.9068 4.74964C11.446 4.71983 10.9756 4.70258 10.4956 4.70258C10.0195 4.70258 9.5503 4.71826 9.08805 4.74964C9.52424 4.19467 9.99442 3.67067 10.4956 3.18102C10.998 3.67054 11.4694 4.19454 11.9068 4.74964ZM14.8255 7.35196C14.5855 6.91171 14.3373 6.48818 14.081 6.08139C14.7533 6.20387 15.4173 6.37312 16.0685 6.58805C15.9191 7.29221 15.7268 7.98542 15.4929 8.66332C15.287 8.2249 15.0655 7.78647 14.8262 7.35275M4.70626 5.14806C4.51884 3.21553 4.90183 1.80849 5.74929 1.29006C6.02116 1.13138 6.32789 1.05181 6.63825 1.05948C7.4909 1.05948 8.57764 1.55202 9.7355 2.49946C8.99767 3.23398 8.32059 4.03402 7.71165 4.89081C6.70825 5.02063 5.717 5.23997 4.74848 5.54649C4.73144 5.41237 4.71589 5.27983 4.70404 5.14806M3.63359 7.11353C3.74767 7.06125 3.86398 7.00896 3.9825 6.95667C4.21552 7.99749 4.53149 9.0155 4.92701 9.99978C4.53074 10.986 4.21452 12.0061 3.98176 13.0492C2.09422 12.2296 1.00007 11.0939 1.00007 9.99978C1.00007 8.96293 1.9631 7.91117 3.63359 7.11353ZM5.74929 18.7095C4.90183 18.1911 4.51884 16.784 4.70626 14.8515C4.71811 14.7197 4.73367 14.5872 4.75071 14.4523C5.71885 14.7609 6.71021 14.981 7.71388 15.1103C8.32251 15.9669 8.99908 16.7669 9.73624 17.5017C8.12206 18.8217 6.64714 19.2569 5.75152 18.7095M16.2945 14.8515C16.4797 16.7848 16.0989 18.1911 15.2507 18.7095C14.3558 19.2585 12.8802 18.8217 11.2667 17.5017C12.0036 16.7669 12.68 15.9669 13.2883 15.1103C14.292 14.9811 15.2834 14.761 16.2515 14.4523C16.2693 14.5872 16.2841 14.7197 16.2967 14.8515M17.0212 13.0476C16.7878 12.0052 16.4713 10.9856 16.0752 9.99978C16.4712 9.01344 16.7874 7.99332 17.0205 6.9504C18.9043 7.77 20.0014 8.90567 20.0014 9.99978C20.0014 11.0939 18.9073 12.2296 17.0197 13.0492" fill="#10EAFA"/>
</g>
<defs>
<clipPath id="clip0_78_1641">
<rect width="21" height="20" fill="white"/>
</clipPath>
</defs>
</svg>
