<svg width="20" height="20" viewBox="0 0 20 20" fill="none" xmlns="http://www.w3.org/2000/svg">
<path d="M10 12.5L10 13.75" stroke="#004054" stroke-width="1.5" stroke-linecap="round" stroke-linejoin="round"/>
<path d="M2.5 9.16666L2.6274 11.5527C2.76428 14.5642 2.83272 16.0699 3.79904 16.9933C4.76536 17.9167 6.27263 17.9167 9.28719 17.9167H10.7128C13.7274 17.9167 15.2346 17.9167 16.201 16.9933C17.1673 16.0699 17.2357 14.5642 17.3726 11.5527L17.5 9.16666" stroke="#004054" stroke-width="1.5" stroke-linecap="round" stroke-linejoin="round"/>
<path d="M2.37233 8.70255C3.78841 11.3954 6.98234 12.5 9.99967 12.5C13.017 12.5 16.2109 11.3954 17.627 8.70255C18.303 7.41713 17.7911 5 16.1263 5H3.87301C2.2082 5 1.69636 7.41714 2.37233 8.70255Z" stroke="#004054" stroke-width="1.5"/>
<path d="M13.3337 5.00001L13.2601 4.74246C12.8934 3.45909 12.7101 2.8174 12.2736 2.45037C11.8371 2.08334 11.2573 2.08334 10.0978 2.08334H9.90286C8.74332 2.08334 8.16355 2.08334 7.72707 2.45037C7.29059 2.8174 7.10726 3.45909 6.74058 4.74246L6.66699 5.00001" stroke="#141B34" stroke-width="1.5"/>
</svg>
