<svg width="20" height="20" viewBox="0 0 20 20" fill="none" xmlns="http://www.w3.org/2000/svg">
<path d="M13.333 14.1667L7.49967 14.1667" stroke="#141B34" stroke-width="1.5" stroke-linecap="round" stroke-linejoin="round"/>
<path d="M13.333 10.8333L10.833 10.8333" stroke="#141B34" stroke-width="1.5" stroke-linecap="round" stroke-linejoin="round"/>
<path d="M17.083 11.6667C17.083 14.8094 17.083 16.3807 16.0457 17.357C15.0083 18.3333 13.3388 18.3333 9.99967 18.3333H9.35574C6.63806 18.3333 5.27923 18.3333 4.33557 17.6685C4.06519 17.478 3.82516 17.2521 3.62276 16.9976C2.91634 16.1094 2.91634 14.8305 2.91634 12.2727V10.1515C2.91634 7.68222 2.91634 6.44756 3.30712 5.46147C3.93535 3.87619 5.26395 2.62575 6.94831 2.03447C7.99603 1.66668 9.30785 1.66668 11.9315 1.66668C13.4307 1.66668 14.1803 1.66668 14.779 1.87684C15.7415 2.21472 16.5007 2.92926 16.8597 3.83513C17.083 4.39861 17.083 5.10413 17.083 6.51516V11.6667Z" stroke="#141B34" stroke-width="1.5" stroke-linejoin="round"/>
<path d="M2.91667 10C2.91667 8.46588 4.16032 7.22222 5.69444 7.22222C6.24926 7.22222 6.90336 7.31944 7.4428 7.1749C7.9221 7.04647 8.29647 6.6721 8.4249 6.1928C8.56944 5.65336 8.47222 4.99926 8.47222 4.44444C8.47222 2.91032 9.71588 1.66667 11.25 1.66667" stroke="#141B34" stroke-width="1.5" stroke-linecap="round" stroke-linejoin="round"/>
</svg>
