<svg width="19" height="18" viewBox="0 0 19 18" fill="none" xmlns="http://www.w3.org/2000/svg">
<path d="M17.9644 0.69469C17.5358 0.260609 16.9543 0.0114195 16.3444 0.0003828C15.7344 -0.0106539 15.1443 0.217338 14.7002 0.635627L5.85071 8.9746L5.84153 8.97328L4.44437 10.3514C4.3402 10.4541 4.25392 10.5734 4.18909 10.7045C3.63738 10.6861 3.09404 10.843 2.63706 11.1527C2.15256 11.4338 1.74969 11.8363 1.4682 12.3205C1.18672 12.8048 1.03633 13.3541 1.03187 13.9142C1.04222 14.1446 1.00697 14.3748 0.928143 14.5916C0.849312 14.8084 0.728451 15.0075 0.572495 15.1775L0.0547142 15.6624L0.0159954 15.8751C-0.0270886 16.109 0.0175695 16.3505 0.141427 16.5536C0.265285 16.7566 0.459649 16.9069 0.687339 16.9756L2.37981 17.4894L2.70793 17.5551C2.9805 17.6054 3.25546 17.6305 3.53284 17.6305C4.20792 17.6302 4.87468 17.4814 5.48592 17.1949C6.09716 16.9083 6.63795 16.4909 7.07003 15.9722C7.44671 15.5233 7.66065 14.9622 7.68034 14.3801C7.8444 14.3178 7.99928 14.22 8.13315 14.0888L8.65684 13.5716L8.66668 13.5913L17.9808 3.95953C18.4047 3.52098 18.6403 2.93403 18.6373 2.3241C18.6342 1.71417 18.3927 1.12896 17.9644 0.69469ZM8.37793 12.0025L6.53387 10.1348L15.6006 1.59047C15.7952 1.40789 16.0534 1.30855 16.3202 1.31364C16.587 1.31873 16.8412 1.42785 17.0287 1.61772C17.2162 1.8076 17.3221 2.0632 17.3238 2.33003C17.3255 2.59685 17.2228 2.85379 17.0378 3.04603L8.37793 12.0025ZM2.94418 16.2655L2.72762 16.2255L1.68812 15.9098C2.09075 15.3768 2.31737 14.7316 2.3365 14.0638C2.31956 13.6975 2.40564 13.3337 2.58497 13.0138C2.7643 12.6939 3.0297 12.4306 3.35106 12.2539C3.60428 12.078 3.91134 11.9968 4.21841 12.0246C4.52548 12.0525 4.81295 12.1875 5.0304 12.4061L5.98459 13.3636C6.21559 13.5956 6.35153 13.9056 6.36573 14.2327C6.37994 14.5598 6.27138 14.8804 6.06137 15.1315C5.68843 15.5792 5.20343 15.92 4.65581 16.1191C4.1082 16.3182 3.51758 16.3692 2.94418 16.2655Z" fill="#10EAFA"/>
</svg>
