<svg width="57" height="36" viewBox="0 0 57 36" fill="none" xmlns="http://www.w3.org/2000/svg">
<path d="M6.05169 6.83813L13.846 5.53906V32.7698L11.0672 33.3548C7.77846 34.0472 4.56244 31.9035 3.93621 28.6015L1.14318 13.8745C0.515979 10.5674 2.73147 7.39151 6.05169 6.83813Z" fill="#080B10" stroke="#48F2FF" stroke-width="2"/>
<path d="M50.2549 6.83813L42.4606 5.53906V32.7698L45.2394 33.3548C48.5282 34.0472 51.7442 31.9035 52.3704 28.6015L55.1635 13.8745C55.7907 10.5674 53.5752 7.39151 50.2549 6.83813Z" fill="#080B10" stroke="#48F2FF" stroke-width="2"/>
<rect x="13.9238" y="1" width="28.4612" height="34" rx="5" fill="#080B10" stroke="#48F2FF" stroke-width="2"/>
<path d="M31.0615 26.5732C31.8621 27.4943 33.2941 27.4895 34.0889 26.5634L38.0107 21.9921L42.3848 26.6992V29.999C42.3847 32.7603 40.1461 34.999 37.3848 34.999H18.9238C16.1625 34.999 13.9239 32.7603 13.9238 29.999V28.4658L23.7021 18.1035L31.0615 26.5732Z" fill="#080B10" stroke="#48F2FF" stroke-width="2"/>
<path d="M31.8447 8.38568C33.5865 8.38568 34.999 9.79815 34.999 11.54C34.9988 13.2816 33.5864 14.6933 31.8447 14.6933C30.1033 14.693 28.6916 13.2814 28.6914 11.54C28.6914 9.79831 30.1032 8.38594 31.8447 8.38568Z" fill="#080B10" stroke="#48F2FF" stroke-width="2"/>
</svg>
